<mxfile host="app.diagrams.net" agent="Mozilla/5.0 (Windows NT 10.0; Win64; x64) AppleWebKit/537.36 (KHTML, like Gecko) Chrome/129.0.0.0 Safari/537.36 Edg/129.0.0.0" version="24.7.17">
  <diagram name="Page-1" id="ok6uAeZnoGjvaKoIYYGb">
    <mxGraphModel dx="1500" dy="1867" grid="1" gridSize="10" guides="1" tooltips="1" connect="1" arrows="1" fold="1" page="1" pageScale="1" pageWidth="850" pageHeight="1100" math="0" shadow="0">
      <root>
        <mxCell id="0" />
        <mxCell id="1" parent="0" />
        <mxCell id="8BCZyTPhIXZpTZEpNpGn-38" value="" style="rounded=0;whiteSpace=wrap;html=1;fillColor=#EBEBEB;strokeColor=#666666;fontColor=#333333;" vertex="1" parent="1">
          <mxGeometry x="145" y="15" width="815" height="575" as="geometry" />
        </mxCell>
        <mxCell id="8BCZyTPhIXZpTZEpNpGn-6" value="" style="rounded=0;whiteSpace=wrap;html=1;fillColor=#f5f5f5;fontColor=#333333;strokeColor=#666666;" vertex="1" parent="1">
          <mxGeometry x="350" y="181" width="570" height="269" as="geometry" />
        </mxCell>
        <mxCell id="8BCZyTPhIXZpTZEpNpGn-37" style="edgeStyle=orthogonalEdgeStyle;rounded=0;orthogonalLoop=1;jettySize=auto;html=1;entryX=0;entryY=0.5;entryDx=0;entryDy=0;" edge="1" parent="1" source="8BCZyTPhIXZpTZEpNpGn-3" target="8BCZyTPhIXZpTZEpNpGn-14">
          <mxGeometry relative="1" as="geometry">
            <Array as="points">
              <mxPoint x="430" y="390" />
            </Array>
          </mxGeometry>
        </mxCell>
        <mxCell id="8BCZyTPhIXZpTZEpNpGn-3" value="Inventory&lt;div&gt;Service&lt;/div&gt;" style="rounded=0;whiteSpace=wrap;html=1;" vertex="1" parent="1">
          <mxGeometry x="370" y="240" width="120" height="60" as="geometry" />
        </mxCell>
        <mxCell id="8BCZyTPhIXZpTZEpNpGn-4" value="Payment&lt;div&gt;Service&lt;/div&gt;" style="rounded=0;whiteSpace=wrap;html=1;" vertex="1" parent="1">
          <mxGeometry x="505" y="240" width="120" height="60" as="geometry" />
        </mxCell>
        <mxCell id="8BCZyTPhIXZpTZEpNpGn-35" style="edgeStyle=orthogonalEdgeStyle;rounded=0;orthogonalLoop=1;jettySize=auto;html=1;entryX=0.5;entryY=0;entryDx=0;entryDy=0;" edge="1" parent="1" source="8BCZyTPhIXZpTZEpNpGn-5" target="8BCZyTPhIXZpTZEpNpGn-14">
          <mxGeometry relative="1" as="geometry" />
        </mxCell>
        <mxCell id="8BCZyTPhIXZpTZEpNpGn-5" value="Orders&lt;div&gt;Service&lt;/div&gt;" style="rounded=0;whiteSpace=wrap;html=1;" vertex="1" parent="1">
          <mxGeometry x="640" y="240" width="120" height="60" as="geometry" />
        </mxCell>
        <mxCell id="8BCZyTPhIXZpTZEpNpGn-7" value="Database" style="shape=cylinder3;whiteSpace=wrap;html=1;boundedLbl=1;backgroundOutline=1;size=15;" vertex="1" parent="1">
          <mxGeometry x="605" y="470" width="60" height="80" as="geometry" />
        </mxCell>
        <mxCell id="8BCZyTPhIXZpTZEpNpGn-15" value="" style="edgeStyle=orthogonalEdgeStyle;rounded=0;orthogonalLoop=1;jettySize=auto;html=1;entryX=0.5;entryY=0;entryDx=0;entryDy=0;entryPerimeter=0;" edge="1" parent="1" source="8BCZyTPhIXZpTZEpNpGn-4" target="8BCZyTPhIXZpTZEpNpGn-14">
          <mxGeometry relative="1" as="geometry">
            <mxPoint x="565" y="300" as="sourcePoint" />
            <mxPoint x="565" y="470" as="targetPoint" />
          </mxGeometry>
        </mxCell>
        <mxCell id="8BCZyTPhIXZpTZEpNpGn-14" value="Saving/Retrieving&amp;nbsp;&lt;div&gt;Information&lt;/div&gt;" style="ellipse;whiteSpace=wrap;html=1;" vertex="1" parent="1">
          <mxGeometry x="550" y="360" width="170" height="60" as="geometry" />
        </mxCell>
        <mxCell id="8BCZyTPhIXZpTZEpNpGn-19" value="" style="group" vertex="1" connectable="0" parent="1">
          <mxGeometry x="625" y="80" width="50" height="40" as="geometry" />
        </mxCell>
        <mxCell id="8BCZyTPhIXZpTZEpNpGn-16" value="" style="shape=actor;whiteSpace=wrap;html=1;" vertex="1" parent="8BCZyTPhIXZpTZEpNpGn-19">
          <mxGeometry width="25" height="40" as="geometry" />
        </mxCell>
        <mxCell id="8BCZyTPhIXZpTZEpNpGn-17" value="" style="shape=actor;whiteSpace=wrap;html=1;" vertex="1" parent="8BCZyTPhIXZpTZEpNpGn-19">
          <mxGeometry x="25" width="25" height="40" as="geometry" />
        </mxCell>
        <mxCell id="8BCZyTPhIXZpTZEpNpGn-18" value="" style="shape=actor;whiteSpace=wrap;html=1;" vertex="1" parent="8BCZyTPhIXZpTZEpNpGn-19">
          <mxGeometry x="12.5" width="25" height="40" as="geometry" />
        </mxCell>
        <mxCell id="8BCZyTPhIXZpTZEpNpGn-21" value="Online Book store" style="text;html=1;align=center;verticalAlign=middle;whiteSpace=wrap;rounded=0;fontSize=21;" vertex="1" parent="1">
          <mxGeometry x="552.5" y="181" width="195" height="40" as="geometry" />
        </mxCell>
        <mxCell id="8BCZyTPhIXZpTZEpNpGn-22" style="edgeStyle=orthogonalEdgeStyle;rounded=0;orthogonalLoop=1;jettySize=auto;html=1;entryX=0.5;entryY=0;entryDx=0;entryDy=0;" edge="1" parent="1" source="8BCZyTPhIXZpTZEpNpGn-18" target="8BCZyTPhIXZpTZEpNpGn-21">
          <mxGeometry relative="1" as="geometry" />
        </mxCell>
        <mxCell id="8BCZyTPhIXZpTZEpNpGn-23" value="Clients" style="text;html=1;align=center;verticalAlign=middle;resizable=0;points=[];autosize=1;strokeColor=none;fillColor=none;" vertex="1" parent="1">
          <mxGeometry x="620" y="50" width="60" height="30" as="geometry" />
        </mxCell>
        <mxCell id="8BCZyTPhIXZpTZEpNpGn-24" value="User Interaction" style="text;html=1;align=center;verticalAlign=middle;resizable=0;points=[];autosize=1;strokeColor=none;fillColor=none;" vertex="1" parent="1">
          <mxGeometry x="610" y="141" width="110" height="30" as="geometry" />
        </mxCell>
        <mxCell id="8BCZyTPhIXZpTZEpNpGn-25" value="" style="group" vertex="1" connectable="0" parent="1">
          <mxGeometry x="183" y="286" width="50" height="40" as="geometry" />
        </mxCell>
        <mxCell id="8BCZyTPhIXZpTZEpNpGn-26" value="" style="shape=actor;whiteSpace=wrap;html=1;" vertex="1" parent="8BCZyTPhIXZpTZEpNpGn-25">
          <mxGeometry width="25" height="40" as="geometry" />
        </mxCell>
        <mxCell id="8BCZyTPhIXZpTZEpNpGn-27" value="" style="shape=actor;whiteSpace=wrap;html=1;" vertex="1" parent="8BCZyTPhIXZpTZEpNpGn-25">
          <mxGeometry x="25" width="25" height="40" as="geometry" />
        </mxCell>
        <mxCell id="8BCZyTPhIXZpTZEpNpGn-28" value="" style="shape=actor;whiteSpace=wrap;html=1;" vertex="1" parent="8BCZyTPhIXZpTZEpNpGn-25">
          <mxGeometry x="12.5" width="25" height="40" as="geometry" />
        </mxCell>
        <mxCell id="8BCZyTPhIXZpTZEpNpGn-30" style="edgeStyle=orthogonalEdgeStyle;rounded=0;orthogonalLoop=1;jettySize=auto;html=1;entryX=0;entryY=0.5;entryDx=0;entryDy=0;" edge="1" parent="1" source="8BCZyTPhIXZpTZEpNpGn-29" target="8BCZyTPhIXZpTZEpNpGn-3">
          <mxGeometry relative="1" as="geometry" />
        </mxCell>
        <mxCell id="8BCZyTPhIXZpTZEpNpGn-29" value="Admin Team" style="text;html=1;align=center;verticalAlign=middle;resizable=0;points=[];autosize=1;strokeColor=none;fillColor=none;" vertex="1" parent="1">
          <mxGeometry x="163" y="330" width="90" height="30" as="geometry" />
        </mxCell>
        <mxCell id="8BCZyTPhIXZpTZEpNpGn-32" value="Monitoring&lt;div&gt;Inventory&lt;/div&gt;" style="text;html=1;align=center;verticalAlign=middle;resizable=0;points=[];autosize=1;strokeColor=none;fillColor=none;" vertex="1" parent="1">
          <mxGeometry x="253" y="350" width="80" height="40" as="geometry" />
        </mxCell>
        <mxCell id="8BCZyTPhIXZpTZEpNpGn-36" style="edgeStyle=orthogonalEdgeStyle;rounded=0;orthogonalLoop=1;jettySize=auto;html=1;entryX=1;entryY=0.5;entryDx=0;entryDy=0;" edge="1" parent="1" source="8BCZyTPhIXZpTZEpNpGn-33" target="8BCZyTPhIXZpTZEpNpGn-14">
          <mxGeometry relative="1" as="geometry">
            <Array as="points">
              <mxPoint x="840" y="390" />
            </Array>
          </mxGeometry>
        </mxCell>
        <mxCell id="8BCZyTPhIXZpTZEpNpGn-33" value="User Account&lt;div&gt;Service&lt;/div&gt;" style="rounded=0;whiteSpace=wrap;html=1;" vertex="1" parent="1">
          <mxGeometry x="780" y="240" width="120" height="60" as="geometry" />
        </mxCell>
        <mxCell id="8BCZyTPhIXZpTZEpNpGn-34" style="edgeStyle=orthogonalEdgeStyle;rounded=0;orthogonalLoop=1;jettySize=auto;html=1;entryX=0.5;entryY=0;entryDx=0;entryDy=0;entryPerimeter=0;" edge="1" parent="1" source="8BCZyTPhIXZpTZEpNpGn-14" target="8BCZyTPhIXZpTZEpNpGn-7">
          <mxGeometry relative="1" as="geometry" />
        </mxCell>
        <mxCell id="8BCZyTPhIXZpTZEpNpGn-39" value="Class Exercise 1" style="text;html=1;align=center;verticalAlign=middle;resizable=0;points=[];autosize=1;strokeColor=none;fillColor=none;fontSize=20;fontStyle=1" vertex="1" parent="1">
          <mxGeometry x="505" y="-25" width="170" height="40" as="geometry" />
        </mxCell>
      </root>
    </mxGraphModel>
  </diagram>
</mxfile>
